# Blender v2.80 (sub 75) OBJ File: 'bishop.blend'
# www.blender.org
mtllib bishop.mtl
o Cube
v 0.324490 1.291802 -0.324490
v 0.690689 0.129261 -0.690689
v 0.324490 1.291802 0.324490
v 0.690689 0.129261 0.690689
v -0.324490 1.291802 -0.324490
v -0.690689 0.129261 -0.690689
v -0.324490 1.291802 0.324490
v -0.690689 0.129261 0.690689
v -0.690689 -0.006466 -0.690689
v -0.690689 -0.006466 0.690689
v 0.690689 -0.006466 -0.690689
v 0.690689 -0.006466 0.690689
v -0.690689 -0.006466 -0.690689
v -0.690689 -0.006466 0.690689
v 0.690689 -0.006466 -0.690689
v 0.690689 -0.006466 0.690689
v 0.255085 1.291802 0.255085
v -0.255085 1.291802 0.255085
v 0.255085 1.291802 -0.255085
v -0.255085 1.291802 -0.255085
v 0.255085 1.397425 0.255085
v -0.255085 1.397425 0.255085
v 0.255085 1.397425 -0.255085
v -0.255085 1.397425 -0.255085
v 0.312851 1.397425 0.312851
v -0.312851 1.397425 0.312851
v 0.312851 1.397425 -0.312851
v -0.312851 1.397425 -0.312851
v 0.132229 1.993604 0.132229
v -0.132229 1.993604 0.132229
v 0.132229 1.993604 -0.132229
v -0.132229 1.993604 -0.132229
v -0.222540 1.695514 0.222540
v -0.222540 1.695514 -0.222540
v 0.222540 1.695514 0.222540
v 0.222540 1.695514 -0.222540
v -0.267696 1.546470 -0.267696
v 0.267696 1.546470 -0.267696
v -0.267696 1.546470 0.267696
v 0.267696 1.546470 0.267696
vt 0.625000 0.750000
vt 0.625000 0.500000
vt 0.625000 0.500000
vt 0.625000 0.750000
vt 0.375000 0.250000
vt 0.625000 0.250000
vt 0.375000 0.500000
vt 0.375000 0.750000
vt 0.625000 0.500000
vt 0.625000 0.750000
vt 0.625000 0.750000
vt 0.625000 0.500000
vt 0.125000 0.500000
vt 0.375000 0.500000
vt 0.375000 0.750000
vt 0.125000 0.750000
vt 0.875000 0.500000
vt 0.875000 0.750000
vt 0.625000 0.750000
vt 0.625000 0.500000
vt 0.375000 0.500000
vt 0.375000 0.250000
vt 0.375000 0.750000
vt 0.125000 0.750000
vt 0.125000 0.500000
vt 0.375000 0.750000
vt 0.625000 1.000000
vt 0.375000 1.000000
vt 0.375000 0.500000
vt 0.375000 0.250000
vt 0.125000 0.750000
vt 0.125000 0.500000
vt 0.875000 0.750000
vt 0.875000 0.500000
vt 0.875000 0.500000
vt 0.875000 0.750000
vt 0.375000 0.500000
vt 0.375000 0.750000
vt 0.625000 0.250000
vt 0.625000 0.750000
vt 0.625000 0.500000
vt 0.625000 0.500000
vt 0.625000 0.750000
vt 0.375000 0.500000
vt 0.375000 0.750000
vt 0.625000 0.250000
vt 0.625000 0.750000
vt 0.625000 0.500000
vt 0.625000 0.500000
vt 0.625000 0.750000
vt 0.625000 0.250000
vt 0.875000 0.500000
vt 0.875000 0.750000
vt 0.375000 0.500000
vt 0.375000 0.750000
vt 0.375000 0.000000
vt 0.625000 0.000000
vt 0.625000 0.250000
vt 0.375000 0.250000
vt 0.625000 0.250000
vt 0.625000 0.250000
vt 0.875000 0.750000
vt 0.875000 0.500000
vt 0.875000 0.500000
vt 0.875000 0.750000
vt 0.375000 0.750000
vt 0.375000 0.500000
vt 0.375000 0.500000
vt 0.375000 0.750000
vt 0.375000 0.750000
vt 0.375000 0.500000
vt 0.875000 0.750000
vt 0.875000 0.500000
vt 0.625000 0.500000
vt 0.625000 0.250000
vt 0.625000 0.750000
vn 0.0000 1.0000 0.0000
vn 0.0000 0.3004 0.9538
vn -0.9538 0.3004 0.0000
vn 0.0000 0.0000 -1.0000
vn 0.9538 0.3004 0.0000
vn 0.0000 0.3004 -0.9538
vn 0.0000 0.0000 1.0000
vn -1.0000 0.0000 0.0000
vn 1.0000 0.0000 0.0000
vn 0.0000 -1.0000 0.0000
vn -0.9570 0.2900 0.0000
vn 0.0000 0.2900 0.9570
vn 0.0000 0.2900 -0.9570
vn 0.9570 0.2900 0.0000
usemtl Material
s off
f 5/1/1 7/2/1 18/3/1 20/4/1
f 4/5/2 3/6/2 7/2/2 8/7/2
f 8/7/3 7/2/3 5/1/3 6/8/3
f 6/9/4 2/10/4 11/11/4 9/12/4
f 2/13/5 1/14/5 3/15/5 4/16/5
f 6/9/6 5/17/6 1/18/6 2/10/6
f 9/12/7 11/11/7 15/19/7 13/20/7
f 4/5/7 8/7/7 10/21/7 12/22/7
f 8/7/8 6/8/8 9/23/8 10/21/8
f 2/13/9 4/16/9 12/24/9 11/25/9
f 13/26/10 15/19/10 16/27/10 14/28/10
f 12/22/7 10/21/7 14/29/7 16/30/7
f 10/21/7 9/23/7 13/26/7 14/29/7
f 11/25/7 12/24/7 16/31/7 15/32/7
f 19/33/4 20/34/4 24/35/4 23/36/4
f 3/15/1 1/14/1 19/37/1 17/38/1
f 1/18/1 5/17/1 20/34/1 19/33/1
f 7/2/1 3/6/1 17/39/1 18/3/1
f 24/40/10 22/41/10 26/42/10 28/43/10
f 17/38/9 19/37/9 23/44/9 21/45/9
f 20/4/8 18/3/8 22/41/8 24/40/8
f 18/3/7 17/39/7 21/46/7 22/41/7
f 34/47/11 33/48/11 30/49/11 32/50/11
f 22/41/10 21/46/10 25/51/10 26/42/10
f 23/36/10 24/35/10 28/52/10 27/53/10
f 21/45/10 23/44/10 27/54/10 25/55/10
f 31/56/1 32/57/1 30/58/1 29/59/1
f 33/48/12 35/60/12 29/61/12 30/49/12
f 36/62/13 34/63/13 32/64/13 31/65/13
f 35/66/14 36/67/14 31/68/14 29/69/14
f 40/70/14 38/71/14 36/67/14 35/66/14
f 38/72/13 37/73/13 34/63/13 36/62/13
f 39/74/12 40/75/12 35/60/12 33/48/12
f 37/76/11 39/74/11 33/48/11 34/47/11
f 28/43/11 26/42/11 39/74/11 37/76/11
f 26/42/12 25/51/12 40/75/12 39/74/12
f 27/53/13 28/52/13 37/73/13 38/72/13
f 25/55/14 27/54/14 38/71/14 40/70/14
