# Blender v2.80 (sub 75) OBJ File: 'king.blend'
# www.blender.org
mtllib king.mtl
o Cube
v 0.324490 1.291802 -0.324490
v 0.690689 0.129261 -0.690689
v 0.324490 1.291802 0.324490
v 0.690689 0.129261 0.690689
v -0.324490 1.291802 -0.324490
v -0.690689 0.129261 -0.690689
v -0.324490 1.291802 0.324490
v -0.690689 0.129261 0.690689
v -0.690689 -0.006466 -0.690689
v -0.690689 -0.006466 0.690689
v 0.690689 -0.006466 -0.690689
v 0.690689 -0.006466 0.690689
v -0.690689 -0.006466 -0.690689
v -0.690689 -0.006466 0.690689
v 0.690689 -0.006466 -0.690689
v 0.690689 -0.006466 0.690689
v 0.255085 1.291802 0.255085
v -0.255085 1.291802 0.255085
v 0.255085 1.291802 -0.255085
v -0.255085 1.291802 -0.255085
v 0.255085 1.397425 0.255085
v -0.255085 1.397425 0.255085
v 0.255085 1.397425 -0.255085
v -0.255085 1.397425 -0.255085
v 0.092340 1.902083 0.092340
v -0.092340 1.902083 0.092340
v 0.092340 1.902083 -0.092340
v -0.092340 1.902083 -0.092340
v 0.252203 1.463882 0.312026
v 0.253034 1.397425 0.253034
v 0.312026 1.463882 0.252203
v -0.252203 1.463882 0.312026
v -0.312026 1.463882 0.252203
v -0.253034 1.397425 0.253034
v 0.312026 1.463882 -0.252203
v 0.253034 1.397425 -0.253034
v 0.252203 1.463882 -0.312026
v -0.312026 1.463882 -0.252203
v -0.252203 1.463882 -0.312026
v -0.253034 1.397425 -0.253034
v 0.248770 1.740292 0.308592
v 0.308592 1.740292 0.248770
v 0.252195 1.831342 0.252195
v -0.252195 1.831342 0.252195
v -0.308592 1.740292 0.248770
v -0.248770 1.740292 0.308592
v 0.308592 1.740292 -0.248770
v 0.248770 1.740292 -0.308592
v 0.252195 1.831342 -0.252195
v -0.252195 1.831342 -0.252195
v -0.248770 1.740292 -0.308592
v -0.308592 1.740292 -0.248770
vt 0.625000 0.750000
vt 0.625000 0.500000
vt 0.625000 0.500000
vt 0.625000 0.750000
vt 0.375000 0.250000
vt 0.625000 0.250000
vt 0.375000 0.500000
vt 0.375000 0.750000
vt 0.625000 0.500000
vt 0.625000 0.750000
vt 0.625000 0.750000
vt 0.625000 0.500000
vt 0.125000 0.500000
vt 0.375000 0.500000
vt 0.375000 0.750000
vt 0.125000 0.750000
vt 0.875000 0.500000
vt 0.875000 0.750000
vt 0.625000 0.750000
vt 0.625000 0.500000
vt 0.375000 0.500000
vt 0.375000 0.250000
vt 0.375000 0.750000
vt 0.125000 0.750000
vt 0.125000 0.500000
vt 0.375000 0.750000
vt 0.625000 1.000000
vt 0.375000 1.000000
vt 0.375000 0.500000
vt 0.375000 0.250000
vt 0.125000 0.750000
vt 0.125000 0.500000
vt 0.875000 0.750000
vt 0.875000 0.500000
vt 0.875000 0.500000
vt 0.875000 0.750000
vt 0.375000 0.500000
vt 0.375000 0.750000
vt 0.625000 0.250000
vt 0.875000 0.725991
vt 0.875000 0.524009
vt 0.875000 0.524186
vt 0.875000 0.725814
vt 0.375000 0.500000
vt 0.375000 0.750000
vt 0.625000 0.500000
vt 0.625000 0.750000
vt 0.625000 0.250000
vt 0.625000 0.500266
vt 0.625000 0.749734
vt 0.375000 0.725991
vt 0.375000 0.524009
vt 0.375000 0.524186
vt 0.375000 0.725814
vt 0.625000 0.500000
vt 0.625000 0.250000
vt 0.625000 0.250000
vt 0.625000 0.500000
vt 0.625000 0.725991
vt 0.625000 0.524009
vt 0.625000 0.524186
vt 0.625000 0.725814
vt 0.625000 0.250266
vt 0.625000 0.499734
vt 0.875000 0.500266
vt 0.875000 0.749734
vt 0.375000 0.500266
vt 0.375000 0.749734
vt 0.375000 0.000000
vt 0.625000 0.000000
vt 0.625000 0.250000
vt 0.375000 0.250000
vt 0.625000 0.750000
vt 0.625000 0.750000
vt 0.875000 0.750000
vt 0.875000 0.500000
vt 0.875000 0.500000
vt 0.875000 0.750000
vt 0.375000 0.750000
vt 0.375000 0.500000
vt 0.375000 0.500000
vt 0.375000 0.750000
vt 0.625000 0.274009
vt 0.625000 0.273900
vt 0.625000 0.250000
vt 0.625000 0.475991
vt 0.375000 0.523900
vt 0.375000 0.500000
vt 0.625000 0.750000
vt 0.625000 0.726100
vt 0.625000 0.274186
vt 0.625000 0.250000
vt 0.625000 0.272571
vt 0.625000 0.475814
vt 0.375000 0.500000
vt 0.375000 0.522570
vt 0.875000 0.523962
vt 0.875000 0.500000
vt 0.875000 0.500000
vt 0.375000 0.750000
vt 0.375000 0.750000
vn 0.0000 1.0000 0.0000
vn 0.0000 0.3004 0.9538
vn -0.9538 0.3004 0.0000
vn 0.0000 0.0000 -1.0000
vn 0.9538 0.3004 0.0000
vn 0.0000 0.3004 -0.9538
vn 0.0000 0.0000 1.0000
vn -1.0000 0.0000 0.0000
vn 1.0000 0.0000 0.0000
vn 0.0000 -1.0000 0.0000
vn 0.0000 0.0124 -0.9999
vn 0.9999 0.0124 0.0000
vn 0.0000 0.9145 0.4047
vn -0.9999 0.0124 -0.0000
vn 0.0000 1.0000 0.0001
vn 0.0000 1.0000 -0.0001
vn -0.4047 0.9145 0.0000
vn 0.0000 0.9145 -0.4047
vn 0.4047 0.9145 0.0000
vn 0.6013 -0.5262 0.6013
vn -0.6013 -0.5262 0.6013
vn 0.6013 -0.5262 -0.6013
vn -0.6013 -0.5262 -0.6013
vn 0.6539 0.3804 0.6539
vn -0.6539 0.3804 0.6539
vn 0.6539 0.3804 -0.6539
vn -0.6539 0.3804 -0.6539
vn -0.0000 -0.6639 0.7479
vn 0.7479 -0.6639 0.0000
vn -0.7479 -0.6639 0.0000
vn 0.0000 -0.6639 -0.7479
vn 0.0000 0.5266 0.8501
vn 0.8501 0.5266 0.0000
vn -0.8501 0.5266 0.0000
vn 0.0000 0.5266 -0.8501
vn -0.7070 0.0176 0.7070
vn -0.7070 0.0176 -0.7070
vn 0.7070 0.0176 0.7070
vn 0.7070 0.0176 -0.7070
vn -0.0000 0.0124 0.9999
usemtl Material
s off
f 5/1/1 7/2/1 18/3/1 20/4/1
f 4/5/2 3/6/2 7/2/2 8/7/2
f 8/7/3 7/2/3 5/1/3 6/8/3
f 6/9/4 2/10/4 11/11/4 9/12/4
f 2/13/5 1/14/5 3/15/5 4/16/5
f 6/9/6 5/17/6 1/18/6 2/10/6
f 9/12/7 11/11/7 15/19/7 13/20/7
f 4/5/7 8/7/7 10/21/7 12/22/7
f 8/7/8 6/8/8 9/23/8 10/21/8
f 2/13/9 4/16/9 12/24/9 11/25/9
f 13/26/10 15/19/10 16/27/10 14/28/10
f 12/22/7 10/21/7 14/29/7 16/30/7
f 10/21/7 9/23/7 13/26/7 14/29/7
f 11/25/7 12/24/7 16/31/7 15/32/7
f 19/33/4 20/34/4 24/35/4 23/36/4
f 3/15/1 1/14/1 19/37/1 17/38/1
f 1/18/1 5/17/1 20/34/1 19/33/1
f 7/2/1 3/6/1 17/39/1 18/3/1
f 37/40/11 39/41/11 51/42/11 48/43/11
f 17/38/9 19/37/9 23/44/9 21/45/9
f 20/4/8 18/3/8 22/46/8 24/47/8
f 18/3/7 17/39/7 21/48/7 22/46/7
f 24/47/1 22/46/1 34/49/1 40/50/1
f 31/51/12 35/52/12 47/53/12 42/54/12
f 44/55/13 43/56/13 25/57/13 26/58/13
f 38/59/14 33/60/14 45/61/14 52/62/14
f 22/46/15 21/48/15 30/63/15 34/64/15
f 23/36/16 24/35/16 40/65/16 36/66/16
f 21/45/1 23/44/1 36/67/1 30/68/1
f 27/69/1 28/70/1 26/71/1 25/72/1
f 50/73/17 44/55/17 26/58/17 28/74/17
f 49/75/18 50/76/18 28/77/18 27/78/18
f 43/79/19 49/80/19 27/81/19 25/82/19
f 29/83/20 30/84/20 31/85/20
f 32/86/21 33/60/21 34/64/21
f 35/52/22 36/87/22 37/88/22
f 38/59/23 39/89/23 40/90/23
f 41/91/24 42/92/24 43/93/24
f 44/55/25 45/61/25 46/94/25
f 47/53/26 48/95/26 49/96/26
f 50/76/27 51/97/27 52/98/27
f 29/83/28 32/86/28 34/64/28 30/63/28
f 35/52/29 31/51/29 30/68/29 36/67/29
f 33/60/30 38/59/30 40/50/30 34/49/30
f 39/41/31 37/40/31 36/66/31 40/65/31
f 43/56/32 44/55/32 46/94/32 41/91/32
f 49/80/33 43/79/33 42/54/33 47/53/33
f 44/55/34 50/73/34 52/62/34 45/61/34
f 50/76/35 49/75/35 48/43/35 51/42/35
f 32/86/36 46/94/36 45/61/36 33/60/36
f 51/42/37 39/41/37 38/99/37 52/98/37
f 31/51/38 42/54/38 41/100/38 29/101/38
f 47/53/39 35/52/39 37/88/39 48/95/39
f 32/86/40 29/83/40 41/91/40 46/94/40
