# Blender v2.80 (sub 75) OBJ File: 'rook.blend'
# www.blender.org
mtllib rookobj.mtl
o Cube.001_Cube.002
v -0.700000 0.000000 0.700000
v -0.700000 2.000000 0.700000
v -0.700000 0.000000 -0.700000
v -0.700000 2.000000 -0.700000
v 0.700000 0.000000 0.700000
v 0.700000 2.000000 0.700000
v 0.700000 0.000000 -0.700000
v 0.700000 2.000000 -0.700000
v -0.700000 0.132815 0.700000
v -0.700000 0.132815 -0.700000
v 0.700000 0.132815 -0.700000
v 0.700000 0.132815 0.700000
v -0.700000 0.261212 0.700000
v -0.700000 0.261212 -0.700000
v 0.700000 0.261212 -0.700000
v 0.700000 0.261212 0.700000
v -0.557354 2.000000 0.557354
v -0.557354 2.000000 -0.557354
v 0.557354 2.000000 -0.557354
v 0.557354 2.000000 0.557354
v -0.557354 1.836566 0.557354
v -0.557354 1.836566 -0.557354
v 0.557354 1.836566 -0.557354
v 0.557354 1.836566 0.557354
v -0.574329 0.249686 -0.574329
v -0.574329 0.144341 -0.574329
v 0.574329 0.249686 -0.574329
v 0.574329 0.144341 -0.574329
v 0.574329 0.249686 0.574329
v 0.574329 0.144341 0.574329
v -0.574329 0.144341 0.574329
v -0.574329 0.249686 0.574329
vt 0.562500 0.000000
vt 0.625000 0.000000
vt 0.625000 0.250000
vt 0.562500 0.250000
vt 0.625000 0.500000
vt 0.562500 0.500000
vt 0.625000 0.750000
vt 0.562500 0.750000
vt 0.625000 1.000000
vt 0.562500 1.000000
vt 0.125000 0.500000
vt 0.375000 0.500000
vt 0.375000 0.750000
vt 0.125000 0.750000
vt 0.625000 0.750000
vt 0.625000 1.000000
vt 0.500000 0.750000
vt 0.500000 1.000000
vt 0.375000 1.000000
vt 0.500000 0.500000
vt 0.375000 0.250000
vt 0.500000 0.250000
vt 0.375000 0.000000
vt 0.500000 0.000000
vt 0.562500 0.750000
vt 0.562500 0.500000
vt 0.500000 0.750000
vt 0.500000 1.000000
vt 0.562500 0.250000
vt 0.562500 0.000000
vt 0.500000 0.250000
vt 0.500000 0.500000
vt 0.625000 0.750000
vt 0.625000 1.000000
vt 0.625000 0.250000
vt 0.625000 0.500000
vt 0.625000 0.000000
vt 0.625000 0.500000
vt 0.875000 0.500000
vt 0.875000 0.750000
vt 0.625000 0.250000
vt 0.625000 0.000000
vt 0.562500 1.000000
vt 0.500000 0.000000
vn -1.0000 0.0000 0.0000
vn 0.0000 0.0000 -1.0000
vn 1.0000 0.0000 0.0000
vn 0.0000 0.0000 1.0000
vn 0.0000 -1.0000 0.0000
vn 0.0000 1.0000 0.0000
vn 0.0913 -0.9958 0.0000
vn 0.0000 0.9958 0.0913
vn -0.0913 -0.9958 0.0000
vn 0.0000 0.9958 -0.0913
vn -0.0913 0.9958 0.0000
vn 0.0913 0.9958 0.0000
vn 0.0000 -0.9958 -0.0913
vn 0.0000 -0.9958 0.0913
usemtl None
s off
f 13/1/1 2/2/1 4/3/1 14/4/1
f 14/4/2 4/3/2 8/5/2 15/6/2
f 15/6/3 8/5/3 6/7/3 16/8/3
f 16/8/4 6/7/4 2/9/4 13/10/4
f 3/11/5 7/12/5 5/13/5 1/14/5
f 2/9/6 6/7/6 20/15/6 17/16/6
f 5/13/4 12/17/4 9/18/4 1/19/4
f 7/12/3 11/20/3 12/17/3 5/13/3
f 3/21/2 10/22/2 11/20/2 7/12/2
f 1/23/1 9/24/1 10/22/1 3/21/1
f 15/6/7 16/8/7 29/25/7 27/26/7
f 9/18/8 12/17/8 30/27/8 31/28/8
f 13/1/9 14/4/9 25/29/9 32/30/9
f 11/20/10 10/22/10 26/31/10 28/32/10
f 17/16/2 20/15/2 24/33/2 21/34/2
f 8/5/6 4/3/6 18/35/6 19/36/6
f 6/7/6 8/5/6 19/36/6 20/15/6
f 4/3/6 2/2/6 17/37/6 18/35/6
f 23/38/6 22/39/6 21/40/6 24/33/6
f 19/36/4 18/35/4 22/41/4 23/38/4
f 20/15/1 19/36/1 23/38/1 24/33/1
f 18/35/3 17/37/3 21/42/3 22/41/3
f 30/27/4 29/25/4 32/43/4 31/28/4
f 28/32/3 27/26/3 29/25/3 30/27/3
f 26/31/2 25/29/2 27/26/2 28/32/2
f 31/44/1 32/30/1 25/29/1 26/31/1
f 10/22/11 9/24/11 31/44/11 26/31/11
f 12/17/12 11/20/12 28/32/12 30/27/12
f 14/4/13 15/6/13 27/26/13 25/29/13
f 16/8/14 13/10/14 32/43/14 29/25/14
